<svg id="Layer_1" data-name="Layer 1" xmlns="http://www.w3.org/2000/svg" xmlns:xlink="http://www.w3.org/1999/xlink" viewBox="0 0 500 369.11"><defs><style>.cls-1,.cls-10,.cls-28,.cls-29,.cls-4{fill:none;}.cls-2,.cls-31{fill:currentColor;}.cls-11,.cls-15,.cls-19,.cls-3,.cls-7{fill:#fff;}.cls-3{opacity:0.7;}.cls-19,.cls-20,.cls-3,.cls-7,.cls-9{isolation:isolate;}.cls-15,.cls-28,.cls-31,.cls-4,.cls-6{stroke:#263238;}.cls-10,.cls-15,.cls-28,.cls-29,.cls-31,.cls-4,.cls-6{stroke-linecap:round;stroke-linejoin:round;}.cls-5,.cls-6{fill:#263238;}.cls-7{opacity:0.5;}.cls-8{clip-path:url(#clip-path);}.cls-9{opacity:0.13;}.cls-10,.cls-29{stroke:#fff;}.cls-12{clip-path:url(#clip-path-2);}.cls-13{clip-path:url(#clip-path-3);}.cls-14{clip-path:url(#clip-path-4);}.cls-16{clip-path:url(#clip-path-5);}.cls-17{clip-path:url(#clip-path-6);}.cls-18{clip-path:url(#clip-path-7);}.cls-19{opacity:0.53;}.cls-20{opacity:0.14;}.cls-21{clip-path:url(#clip-path-8);}.cls-22{clip-path:url(#clip-path-9);}.cls-23{clip-path:url(#clip-path-10);}.cls-24{clip-path:url(#clip-path-11);}.cls-25{clip-path:url(#clip-path-12);}.cls-26{clip-path:url(#clip-path-13);}.cls-27{clip-path:url(#clip-path-14);}.cls-28{stroke-width:2px;}.cls-29{stroke-width:0.75px;}.cls-30{clip-path:url(#clip-path-15);}</style><clipPath id="clip-path"><path class="cls-1" d="M210.33,161.57s-26.05-3.09-43.19,10.28-31.88,69.24-31.54,96,10.29,40.11,35.31,51.07,71.63,6.86,97.68-1.37,34.62-37,34.28-52.44-17.48-33.25-23.31-37-22.28-11.65-30.5-24S228.83,165,210.33,161.57Z"/></clipPath><clipPath id="clip-path-2"><path class="cls-1" d="M209.4,164.33s-9.33,3-10.67,5.33-.33,18.67-.33,20.67,1.17-1.17,2.17-3.5,4.5-5.84,5.66-5.5,1.84,1.66,1.84,3.83,2.66,5.17,5,6.83,4.5,3.34,4.5,3.34,4.83-7,6-8.84,1-5.66,1.16-7,3.17,3.67,3.84,2.34-1.5-2.5-3.84-6.17-1.66-7.5-5.16-10.17S212.07,163.65,209.4,164.33Z"/></clipPath><clipPath id="clip-path-3"><path class="cls-1" d="M187.32,231.9s-5.75-8.25-12.75-9-15.5,5-15.75,7-2,12.75-.75,14.25,6,2.75,15.25-.25S186.32,237.15,187.32,231.9Z"/></clipPath><clipPath id="clip-path-4"><path class="cls-1" d="M167.82,234.15s-9.38,3.72-9.75,11c-.21,4,6.5,5.75,13.5,5.75s17-8.75,23.5-12.5,21.5-12.5,23.25-13.25,7.75,1.25,10.25,2a33.3,33.3,0,0,0,7.25.75s3.5,5.5,5.25,5.5-3.75-8.25-4.5-10-13-5.75-14.5-5.75-36.5,8.75-41.75,10.75S167.82,234.15,167.82,234.15Z"/></clipPath><clipPath id="clip-path-5"><polygon class="cls-1" points="233.32 221.4 206.54 240.34 267.79 238.59 288.32 221.65 233.32 221.4"/></clipPath><clipPath id="clip-path-6"><path class="cls-1" d="M253.57,240.15s22-19.25,43.75-25.75,26.25-5.5,25.75,4.25-11,60.75-18,73.75-15.75,36.75-15.5,41.25,8.75,17.75,16.25,22.5,6.75,10.5,2,11.5-10.25,2.75-26.5-7.75-23-25.5-22-29.25,11.5-8.75,15.75-16.25,11.25-35.5,11.75-48.25a75.77,75.77,0,0,1,5-23.5s-27.5,5-35.5,10Z"/></clipPath><clipPath id="clip-path-7"><path class="cls-1" d="M275.07,314.4c-.32.56-.68,1.1-1.06,1.64a25.73,25.73,0,0,1,14.06,5.86,44.53,44.53,0,0,1,3.42,3.31c4.79-6.44,10.18-26.75,16.26-35.11,15.71-21.59,14.82-61.7,15.32-71.45s-4-10.75-25.75-4.25-43.75,25.75-43.75,25.75l2.75,12.5c8-5,35.5-10,35.5-10a75.77,75.77,0,0,0-5,23.5C286.32,278.9,279.32,306.9,275.07,314.4Z"/></clipPath><clipPath id="clip-path-8"><path class="cls-1" d="M188.07,244.15s-8,4.5-10.75,9.5S186.4,267,198.9,266.48s35.42-14.08,35.42-14.08.25,22,4.5,30,23.75,27.5,31.5,32.5,33.75,23.75,37.75,26.75,11.5,8.5,13.25,8.75,20-22,24.25-29.5,8-23.25,6.5-26.75-4.5-.5-7.5,2-30.5,20.75-33,22a27.53,27.53,0,0,1-4.25,1.75s-22.5-21.5-34.5-38-13-37.75-17.5-45.75-11-11.5-20.75-10.5S204.57,231.9,188.07,244.15Z"/></clipPath><clipPath id="clip-path-9"><path class="cls-1" d="M305.77,318.4c-5.29-5.16-25.12-31.77-32.95-47.07-11.47-22.42-12.71-30.06-17.21-38.06s-11.29-8.62-21-7.62-27.2,2.81-48.6,14.95c0,0-9,4.88-11.74,9.88s7.27,17.59,24.67,16c12.46-1.14,35.42-14.08,35.42-14.08s.25,22,4.5,30,23.75,27.5,31.5,32.5c4.91,3.17,17.16,11.87,26.49,18.57C299.15,325.1,303.28,320.52,305.77,318.4Z"/></clipPath><clipPath id="clip-path-10"><path class="cls-1" d="M345.57,320.9c4.25-7.5,8-23.25,6.5-26.75-.87-2-2.24-1.87-3.83-.89,1.05,4.67,0,13.68-5.17,23.39-4.61,8.66-18.85,24-26,31.42a16.56,16.56,0,0,0,4.27,2.33C323.07,350.65,341.32,328.4,345.57,320.9Z"/></clipPath><clipPath id="clip-path-11"><path class="cls-1" d="M305.82,356.15a32.22,32.22,0,0,1-6.66-6c-5.16-2.2-12.05-5-18.09-8.76-6.5-4-5-6.5-8.75-10.25-2.88-2.88-8.54-3.25-11-3.27a6.88,6.88,0,0,0-2,2.77c-1,3.75,5.75,18.75,22,29.25s21.75,8.75,26.5,7.75S313.32,360.9,305.82,356.15Z"/></clipPath><clipPath id="clip-path-12"><path class="cls-1" d="M307.07,357.9c-6.5-3.75-19.75-6.25-28.25-12s-6.25-10.75-12.5-14.75a6.37,6.37,0,0,0-7-.4c-.87,3.9,5.9,18.73,22,29.15s21.75,8.75,26.5,7.75c3.16-.67,4.53-3.43,2.9-6.6A13.77,13.77,0,0,0,307.07,357.9Z"/></clipPath><clipPath id="clip-path-13"><path class="cls-1" d="M206.72,151.33S207.89,164,208.38,168s1.6,15.45,2.75,19.24,7.42,10.38,8,8.86,3.7-11.83,2.46-18-1.62-11.44-.85-13,3.54-3.31,3.54-3.31a99.87,99.87,0,0,1-9.39-5.47C210.47,153.33,207.34,150,206.72,151.33Z"/></clipPath><clipPath id="clip-path-14"><path class="cls-1" d="M206.26,153.16s7.2,6,12.72,8.2,14,2.06,15.21-.81-2.1-25.6-4.95-31.58-5.89-6.08-10.92-6.54-15.09,3.64-16.86,8.5.25,11.74,1.71,15.82A29.6,29.6,0,0,0,206.26,153.16Z"/></clipPath><clipPath id="clip-path-15"><path class="cls-1" d="M208.41,147.2s-3.23-4.66-6.63-2.79-.76,8.52,1.29,10.83,6-2,6.41-3.08"/></clipPath></defs><title>Create</title><g id="freepik--background-simple--inject-7"><path class="cls-2" d="M410.46,262.43c7.48-61.05-28.74-142.2-66.3-175.7-67.79-60.5-124.11-48.8-167.91-27.13s-50.07,94-80.31,126.73-47.46,76.75-1.56,120.58,82.91,21.55,130.89,18.78,111.59,19.1,146,.07C395.32,312.48,407.16,289.42,410.46,262.43Z"/><path class="cls-3" d="M410.46,262.43c7.48-61.05-28.74-142.2-66.3-175.7-67.79-60.5-124.11-48.8-167.91-27.13s-50.07,94-80.31,126.73-47.46,76.75-1.56,120.58,82.91,21.55,130.89,18.78,111.59,19.1,146,.07C395.32,312.48,407.16,289.42,410.46,262.43Z"/></g><g id="freepik--Background--inject-7"><line class="cls-4" x1="220.61" y1="260.28" x2="220.61" y2="35.34"/><polyline class="cls-4" points="74.39 262.51 216.28 262.51 431.85 332.09"/><path class="cls-5" d="M139,257.23h-9.8V95.17h20.23L140.7,63.66H114.5l-8.73,31.51H126V257.23h-9.83a9.61,9.61,0,0,0-9.59,9.42v.07h0v.08h0c.29,2.26,9.57,4.08,21,4.08s20.71-1.82,21-4.08h0A9.6,9.6,0,0,0,139,257.23Z"/><path class="cls-6" d="M269.59,24.19V215l143.67,23.64V.55ZM409.53,78.83l-73,4.14V16.67l73-11.62Zm-73,11.11,73-3.35v66.66l-73-3.41Zm-5.92,59.62L272,146.83V92.9l58.56-2.68Zm0-131.95V83.33L272,86.62V26.93ZM272,153.11l58.56,3.37v65.11L272,212.27Zm64.48,69.42V156.82l73,4.2v73.13Z"/></g><g id="freepik--Character--inject-7"><ellipse class="cls-2" cx="220.04" cy="319.47" rx="114.95" ry="35.81"/><ellipse class="cls-7" cx="220.04" cy="319.47" rx="114.95" ry="35.81"/><path class="cls-2" d="M210.33,161.57s-26.05-3.09-43.19,10.28-31.88,69.24-31.54,96,10.29,40.11,35.31,51.07,71.63,6.86,97.68-1.37,34.62-37,34.28-52.44-17.48-33.25-23.31-37-22.28-11.65-30.5-24S228.83,165,210.33,161.57Z"/><g class="cls-8"><path class="cls-9" d="M273.37,315.7c-9.85-1.33-21.53-4-30.37-9.37-18.67-11.33-23.33-32.67-30-40.67s-18.67-7.33-24-16S192.33,177,177,173a34.81,34.81,0,0,0-9.57-1.37c-.09.08-.2.14-.29.22-17.14,13.37-31.88,69.24-31.54,96s10.29,40.11,35.31,51.07,71.63,6.86,97.68-1.37A39,39,0,0,0,273.37,315.7Z"/></g><path class="cls-4" d="M210.33,161.57s-26.05-3.09-43.19,10.28-31.88,69.24-31.54,96,10.29,40.11,35.31,51.07,71.63,6.86,97.68-1.37,34.62-37,34.28-52.44-17.48-33.25-23.31-37-22.28-11.65-30.5-24S228.83,165,210.33,161.57Z"/><path class="cls-6" d="M200.07,173.65s-17,3.25-20,6.25-15.5,50-15.5,50a18.68,18.68,0,0,1,10.5.5c5,2,5.5,7.25,6,9.75q.6,4.48.75,9s50.53-4.51,61.28-7,27.11-3.65,27.11-3.65-27.64-62.34-31.89-64.59-22-2.5-24.5-2S200.07,173.65,200.07,173.65Z"/><line class="cls-10" x1="183.32" y1="231.4" x2="187.57" y2="196.65"/><line class="cls-10" x1="186.57" y1="205.9" x2="192.32" y2="198.4"/><path class="cls-10" d="M203.82,210.4s16.25-5.25,27-5.25"/><path class="cls-10" d="M219.16,196.07l-1.09,8.33s2.75,0,3,1.25a3.33,3.33,0,0,1-1,2.5s7.75,4.25,8.75,9.25"/><path class="cls-11" d="M209.4,164.33s-9.33,3-10.67,5.33-.33,18.67-.33,20.67,1.17-1.17,2.17-3.5,4.5-5.84,5.66-5.5,1.84,1.66,1.84,3.83,2.66,5.17,5,6.83,4.5,3.34,4.5,3.34,4.83-7,6-8.84,1-5.66,1.16-7,3.17,3.67,3.84,2.34-1.5-2.5-3.84-6.17-1.66-7.5-5.16-10.17S212.07,163.65,209.4,164.33Z"/><g class="cls-12"><path class="cls-2" d="M198.73,169.65c-.88,1.56-.74,9.34-.54,15,2.13-2.74,6.52-7.92,9.06-6.94,3.24,1.25,4.48,10.46,4.48,10.46l-2.19-23.84h-.14S200.07,167.33,198.73,169.65Z"/><path class="cls-7" d="M198.73,169.65c-.88,1.56-.74,9.34-.54,15,2.13-2.74,6.52-7.92,9.06-6.94,3.24,1.25,4.48,10.46,4.48,10.46l-2.19-23.84h-.14S200.07,167.33,198.73,169.65Z"/></g><path class="cls-4" d="M209.4,164.33s-9.33,3-10.67,5.33-.33,18.67-.33,20.67,1.17-1.17,2.17-3.5,4.5-5.84,5.66-5.5,1.84,1.66,1.84,3.83,2.66,5.17,5,6.83,4.5,3.34,4.5,3.34,4.83-7,6-8.84,1-5.66,1.16-7,3.17,3.67,3.84,2.34-1.5-2.5-3.84-6.17-1.66-7.5-5.16-10.17S212.07,163.65,209.4,164.33Z"/><path class="cls-11" d="M187.32,231.9s-5.75-8.25-12.75-9-15.5,5-15.75,7-2,12.75-.75,14.25,6,2.75,15.25-.25S186.32,237.15,187.32,231.9Z"/><g class="cls-13"><path class="cls-2" d="M163.93,243.89s-2-5.72-1-7.71,5-5,7.47-8-5.83,1.69-6.23,0c-.31-1.36,4.39-4.08,6.24-5.09-5.82,1.12-11.39,5.17-11.59,6.78-.25,2-2,12.75-.75,14.25.64.77,2.23,1.48,4.88,1.57C163.55,244.66,163.93,243.89,163.93,243.89Z"/><path class="cls-7" d="M163.93,243.89s-2-5.72-1-7.71,5-5,7.47-8-5.83,1.69-6.23,0c-.31-1.36,4.39-4.08,6.24-5.09-5.82,1.12-11.39,5.17-11.59,6.78-.25,2-2,12.75-.75,14.25.64.77,2.23,1.48,4.88,1.57C163.55,244.66,163.93,243.89,163.93,243.89Z"/></g><path class="cls-4" d="M187.32,231.9s-5.75-8.25-12.75-9-15.5,5-15.75,7-2,12.75-.75,14.25,6,2.75,15.25-.25S186.32,237.15,187.32,231.9Z"/><path class="cls-11" d="M167.82,234.15s-9.38,3.72-9.75,11c-.21,4,6.5,5.75,13.5,5.75s17-8.75,23.5-12.5,21.5-12.5,23.25-13.25,7.75,1.25,10.25,2a33.3,33.3,0,0,0,7.25.75s3.5,5.5,5.25,5.5-3.75-8.25-4.5-10-13-5.75-14.5-5.75-36.5,8.75-41.75,10.75S167.82,234.15,167.82,234.15Z"/><g class="cls-14"><path class="cls-2" d="M187.43,233.11c14.29-7.15,34.64-15.46,34.64-15.46-1.5,0-36.5,8.75-41.75,10.75s-12.5,5.75-12.5,5.75-9.38,3.72-9.75,11c-.21,4,6.5,5.75,13.5,5.75s17-8.75,23.5-12.5l3.94-2.28C189.46,237.33,176.69,238.47,187.43,233.11Z"/><path class="cls-7" d="M187.43,233.11c14.29-7.15,34.64-15.46,34.64-15.46-1.5,0-36.5,8.75-41.75,10.75s-12.5,5.75-12.5,5.75-9.38,3.72-9.75,11c-.21,4,6.5,5.75,13.5,5.75s17-8.75,23.5-12.5l3.94-2.28C189.46,237.33,176.69,238.47,187.43,233.11Z"/></g><path class="cls-4" d="M167.82,234.15s-9.38,3.72-9.75,11c-.21,4,6.5,5.75,13.5,5.75s17-8.75,23.5-12.5,21.5-12.5,23.25-13.25,7.75,1.25,10.25,2a33.3,33.3,0,0,0,7.25.75s3.5,5.5,5.25,5.5-3.75-8.25-4.5-10-13-5.75-14.5-5.75-36.5,8.75-41.75,10.75S167.82,234.15,167.82,234.15Z"/><path class="cls-15" d="M240.94,178.55l-7.62,42.85,55,.25L296.5,181a2.52,2.52,0,0,0-2-2.95,2.6,2.6,0,0,0-.39-.05l-50.6-1.52A2.52,2.52,0,0,0,240.94,178.55Z"/><polygon class="cls-11" points="233.32 221.4 206.54 240.34 267.79 238.59 288.32 221.65 233.32 221.4"/><g class="cls-16"><polygon class="cls-2" points="233.32 221.4 206.54 240.34 267.79 238.59 288.32 221.65 233.32 221.4"/><polygon class="cls-7" points="233.32 221.4 206.54 240.34 267.79 238.59 288.32 221.65 233.32 221.4"/></g><polygon class="cls-4" points="233.32 221.4 206.54 240.34 267.79 238.59 288.32 221.65 233.32 221.4"/><path class="cls-11" d="M253.57,240.15s22-19.25,43.75-25.75,26.25-5.5,25.75,4.25-11,60.75-18,73.75-15.75,36.75-15.5,41.25,8.75,17.75,16.25,22.5,6.75,10.5,2,11.5-10.25,2.75-26.5-7.75-23-25.5-22-29.25,11.5-8.75,15.75-16.25,11.25-35.5,11.75-48.25a75.77,75.77,0,0,1,5-23.5s-27.5,5-35.5,10Z"/><g class="cls-17"><path class="cls-2" d="M253.57,240.15s22-19.25,43.75-25.75,26.25-5.5,25.75,4.25-11,60.75-18,73.75-15.75,36.75-15.5,41.25,8.75,17.75,16.25,22.5,6.75,10.5,2,11.5-10.25,2.75-26.5-7.75-23-25.5-22-29.25,11.5-8.75,15.75-16.25,11.25-35.5,11.75-48.25a75.77,75.77,0,0,1,5-23.5s-27.5,5-35.5,10Z"/><path class="cls-7" d="M253.57,240.15s22-19.25,43.75-25.75,26.25-5.5,25.75,4.25-11,60.75-18,73.75-15.75,36.75-15.5,41.25,8.75,17.75,16.25,22.5,6.75,10.5,2,11.5-10.25,2.75-26.5-7.75-23-25.5-22-29.25,11.5-8.75,15.75-16.25,11.25-35.5,11.75-48.25a75.77,75.77,0,0,1,5-23.5s-27.5,5-35.5,10Z"/></g><path class="cls-4" d="M253.57,240.15s22-19.25,43.75-25.75,26.25-5.5,25.75,4.25-11,60.75-18,73.75-15.75,36.75-15.5,41.25,8.75,17.75,16.25,22.5,6.75,10.5,2,11.5-10.25,2.75-26.5-7.75-23-25.5-22-29.25,11.5-8.75,15.75-16.25,11.25-35.5,11.75-48.25a75.77,75.77,0,0,1,5-23.5s-27.5,5-35.5,10Z"/><path class="cls-15" d="M275.07,314.4c-.32.56-.68,1.1-1.06,1.64a25.73,25.73,0,0,1,14.06,5.86,44.53,44.53,0,0,1,3.42,3.31,218.83,218.83,0,0,1,13.58-32.81c7-13,17.5-64,18-73.75s-4-10.75-25.75-4.25-43.75,25.75-43.75,25.75l2.75,12.5c8-5,35.5-10,35.5-10a75.77,75.77,0,0,0-5,23.5C286.32,278.9,279.32,306.9,275.07,314.4Z"/><path class="cls-5" d="M275.07,314.4c-.32.56-.68,1.1-1.06,1.64a25.73,25.73,0,0,1,14.06,5.86,44.53,44.53,0,0,1,3.42,3.31c4.79-6.44,10.18-26.75,16.26-35.11,15.71-21.59,14.82-61.7,15.32-71.45s-4-10.75-25.75-4.25-43.75,25.75-43.75,25.75l2.75,12.5c8-5,35.5-10,35.5-10a75.77,75.77,0,0,0-5,23.5C286.32,278.9,279.32,306.9,275.07,314.4Z"/><g class="cls-18"><path class="cls-19" d="M275.07,314.4c-.32.56-.68,1.1-1.06,1.64a25.73,25.73,0,0,1,14.06,5.86,44.53,44.53,0,0,1,3.42,3.31c4.79-6.44,10.18-26.75,16.26-35.11,15.71-21.59,14.82-61.7,15.32-71.45s-4-10.75-25.75-4.25-43.75,25.75-43.75,25.75l2.75,12.5c8-5,35.5-10,35.5-10a75.77,75.77,0,0,0-5,23.5C286.32,278.9,279.32,306.9,275.07,314.4Z"/><path class="cls-20" d="M312.5,217.33c-.39-3.55-39.06,12.82-55.37,19.88-2.26,1.8-3.56,2.94-3.56,2.94l2.75,12.5c8-5,35.5-10,35.5-10a75.77,75.77,0,0,0-5,23.5c-.5,12.75-7.5,40.75-11.75,48.25-.32.56-.68,1.1-1.06,1.64a28.76,28.76,0,0,1,8,2.07c6-12.78,12.44-27.65,15.49-39.28C303,257.83,313,221.83,312.5,217.33Z"/><path class="cls-4" d="M291.82,242.65s7.5-15.25,14-21.5"/></g><path class="cls-4" d="M275.07,314.4c-.32.56-.68,1.1-1.06,1.64a25.73,25.73,0,0,1,14.06,5.86,44.53,44.53,0,0,1,3.42,3.31c4.79-6.44,10.18-26.75,16.26-35.11,15.71-21.59,14.82-61.7,15.32-71.45s-4-10.75-25.75-4.25-43.75,25.75-43.75,25.75l2.75,12.5c8-5,35.5-10,35.5-10a75.77,75.77,0,0,0-5,23.5C286.32,278.9,279.32,306.9,275.07,314.4Z"/><path class="cls-6" d="M220.61,260.33a85.56,85.56,0,0,0,23.65-4.45c11.31-4.12-9.26-11.66-17.14-7.54A11.72,11.72,0,0,0,220.61,260.33Z"/><path class="cls-11" d="M188.07,244.15s-8,4.5-10.75,9.5S186.4,267,198.9,266.48s35.42-14.08,35.42-14.08.25,22,4.5,30,23.75,27.5,31.5,32.5,33.75,23.75,37.75,26.75,11.5,8.5,13.25,8.75,20-22,24.25-29.5,8-23.25,6.5-26.75-4.5-.5-7.5,2-30.5,20.75-33,22a27.53,27.53,0,0,1-4.25,1.75s-22.5-21.5-34.5-38-13-37.75-17.5-45.75-11-11.5-20.75-10.5S204.57,231.9,188.07,244.15Z"/><g class="cls-21"><path class="cls-2" d="M293.85,331.33c6.68,4.78,12.49,9,14.22,10.3,4,3,11.5,8.5,13.25,8.75.62.09,3.32-2.66,6.73-6.57l-28.63-18.42Z"/><path class="cls-7" d="M293.85,331.33c6.68,4.78,12.49,9,14.22,10.3,4,3,11.5,8.5,13.25,8.75.62.09,3.32-2.66,6.73-6.57l-28.63-18.42Z"/></g><path class="cls-4" d="M188.07,244.15s-8,4.5-10.75,9.5S186.4,267,198.9,266.48s35.42-14.08,35.42-14.08.25,22,4.5,30,23.75,27.5,31.5,32.5,33.75,23.75,37.75,26.75,11.5,8.5,13.25,8.75,20-22,24.25-29.5,8-23.25,6.5-26.75-4.5-.5-7.5,2-30.5,20.75-33,22a27.53,27.53,0,0,1-4.25,1.75s-22.5-21.5-34.5-38-13-37.75-17.5-45.75-11-11.5-20.75-10.5S204.57,231.9,188.07,244.15Z"/><path class="cls-5" d="M305.77,318.4c-5.29-5.16-25.12-31.77-32.95-47.07-11.47-22.42-12.71-30.06-17.21-38.06s-11.29-8.62-21-7.62-27.2,2.81-48.6,14.95c0,0-9,4.88-11.74,9.88s7.27,17.59,24.67,16c12.46-1.14,35.42-14.08,35.42-14.08s.25,22,4.5,30,23.75,27.5,31.5,32.5c4.91,3.17,17.16,11.87,26.49,18.57C299.15,325.1,303.28,320.52,305.77,318.4Z"/><g class="cls-22"><path class="cls-19" d="M305.77,318.4c-5.29-5.16-25.12-31.77-32.95-47.07-11.47-22.42-12.71-30.06-17.21-38.06s-11.29-8.62-21-7.62-27.2,2.81-48.6,14.95c0,0-9,4.88-11.74,9.88s7.27,17.59,24.67,16c12.46-1.14,35.42-14.08,35.42-14.08s.25,22,4.5,30,23.75,27.5,31.5,32.5c4.91,3.17,17.16,11.87,26.49,18.57C299.15,325.1,303.28,320.52,305.77,318.4Z"/><path class="cls-20" d="M255.5,282.83c-7.5-19-3-57-24-52-15.3,3.64-43.35,16.58-57.44,23.33,1.67,5.74,10.87,13.6,24.84,12.32,12.46-1.14,35.42-14.08,35.42-14.08s.25,22,4.5,30,23.75,27.5,31.5,32.5c4.91,3.17,17.16,11.87,26.49,18.57a35.89,35.89,0,0,1,3.49-8.37C281.68,311.33,259.69,293.44,255.5,282.83Z"/><line class="cls-4" x1="234.32" y1="252.4" x2="233.57" y2="239.4"/></g><path class="cls-4" d="M305.77,318.4c-5.29-5.16-25.12-31.77-32.95-47.07-11.47-22.42-12.71-30.06-17.21-38.06s-11.29-8.62-21-7.62-27.2,2.81-48.6,14.95c0,0-9,4.88-11.74,9.88s7.27,17.59,24.67,16c12.46-1.14,35.42-14.08,35.42-14.08s.25,22,4.5,30,23.75,27.5,31.5,32.5c4.91,3.17,17.16,11.87,26.49,18.57C299.15,325.1,303.28,320.52,305.77,318.4Z"/><path class="cls-6" d="M308.07,341.65c4,3,11.5,8.5,13.25,8.75s20-22,24.25-29.5,8-23.25,6.5-26.75-4.5-.5-7.5,2-30.5,20.75-33,22c-.66.33-1.26.6-1.79.83-.72,1.37-1.6,3.49-1,4.92,1,2.25,5.25,5.25,5.25,5.25l-7.57,11.34Z"/><path class="cls-11" d="M345.57,320.9c4.25-7.5,8-23.25,6.5-26.75-.87-2-2.24-1.87-3.83-.89,1.05,4.67,0,13.68-5.17,23.39-4.61,8.66-18.85,24-26,31.42a16.56,16.56,0,0,0,4.27,2.33C323.07,350.65,341.32,328.4,345.57,320.9Z"/><g class="cls-23"><path class="cls-2" d="M321.57,350.33l.22-.11.06-.05a2.62,2.62,0,0,0,.34-.24l.12-.1.29-.24.16-.15.39-.36.24-.23.33-.32.28-.28.28-.28.71-.75.12-.12.44-.48.18-.19c.52-.57,1.08-1.19,1.66-1.85v-.05l.62-.7h0L323.64,341c-2.48,2.7-4.79,5.14-6.63,7.05h0l.67.44.1.06.62.39h0l1,.57.28.16.28.15.32.16.21.1a1.69,1.69,0,0,0,.31.13l.15.06a1.61,1.61,0,0,0,.36.1.31.31,0,0,0,.19,0Z"/><path class="cls-7" d="M321.57,350.33l.22-.11.06-.05a2.62,2.62,0,0,0,.34-.24l.12-.1.29-.24.16-.15.39-.36.24-.23.33-.32.28-.28.28-.28.71-.75.12-.12.44-.48.18-.19c.52-.57,1.08-1.19,1.66-1.85v-.05l.62-.7h0L323.64,341c-2.48,2.7-4.79,5.14-6.63,7.05h0l.67.44.1.06.62.39h0l1,.57.28.16.28.15.32.16.21.1a1.69,1.69,0,0,0,.31.13l.15.06a1.61,1.61,0,0,0,.36.1.31.31,0,0,0,.19,0Z"/></g><path class="cls-4" d="M345.57,320.9c4.25-7.5,8-23.25,6.5-26.75-.87-2-2.24-1.87-3.83-.89,1.05,4.67,0,13.68-5.17,23.39-4.61,8.66-18.85,24-26,31.42a16.56,16.56,0,0,0,4.27,2.33C323.07,350.65,341.32,328.4,345.57,320.9Z"/><path class="cls-6" d="M305.82,356.15c-7.5-4.75-16-18-16.25-22.5a7.29,7.29,0,0,1,.12-1.47,7.17,7.17,0,0,0-4.12,1.47,95.8,95.8,0,0,0-9.75-7.75,20.53,20.53,0,0,0-9-2.69c-3.63,3-7,5.4-7.53,7.44-1,3.75,5.75,18.75,22,29.25s21.75,8.75,26.5,7.75S313.32,360.9,305.82,356.15Z"/><path class="cls-11" d="M305.82,356.15a32.22,32.22,0,0,1-6.66-6c-5.16-2.2-12.05-5-18.09-8.76-6.5-4-5-6.5-8.75-10.25-2.88-2.88-8.54-3.25-11-3.27a6.88,6.88,0,0,0-2,2.77c-1,3.75,5.75,18.75,22,29.25s21.75,8.75,26.5,7.75S313.32,360.9,305.82,356.15Z"/><g class="cls-24"><path class="cls-2" d="M305.82,356.15a32.22,32.22,0,0,1-6.66-6c-5.16-2.2-12.05-5-18.09-8.76-6.5-4-5-6.5-8.75-10.25-2.88-2.88-8.54-3.25-11-3.27a6.88,6.88,0,0,0-2,2.77c-1,3.75,5.75,18.75,22,29.25s21.75,8.75,26.5,7.75S313.32,360.9,305.82,356.15Z"/><path class="cls-7" d="M305.82,356.15a32.22,32.22,0,0,1-6.66-6c-5.16-2.2-12.05-5-18.09-8.76-6.5-4-5-6.5-8.75-10.25-2.88-2.88-8.54-3.25-11-3.27a6.88,6.88,0,0,0-2,2.77c-1,3.75,5.75,18.75,22,29.25s21.75,8.75,26.5,7.75S313.32,360.9,305.82,356.15Z"/></g><path class="cls-4" d="M305.82,356.15a32.22,32.22,0,0,1-6.66-6c-5.16-2.2-12.05-5-18.09-8.76-6.5-4-5-6.5-8.75-10.25-2.88-2.88-8.54-3.25-11-3.27a6.88,6.88,0,0,0-2,2.77c-1,3.75,5.75,18.75,22,29.25s21.75,8.75,26.5,7.75S313.32,360.9,305.82,356.15Z"/><path class="cls-5" d="M307.07,357.9c-6.5-3.75-19.75-6.25-28.25-12s-6.25-10.75-12.5-14.75a6.37,6.37,0,0,0-7-.4c-.87,3.9,5.9,18.73,22,29.15s21.75,8.75,26.5,7.75c3.16-.67,4.53-3.43,2.9-6.6A13.77,13.77,0,0,0,307.07,357.9Z"/><g class="cls-25"><path class="cls-19" d="M307.07,357.9c-6.5-3.75-19.75-6.25-28.25-12s-6.25-10.75-12.5-14.75a6.37,6.37,0,0,0-7-.4c-.87,3.9,5.9,18.73,22,29.15s21.75,8.75,26.5,7.75c3.16-.67,4.53-3.43,2.9-6.6A13.77,13.77,0,0,0,307.07,357.9Z"/></g><path class="cls-4" d="M307.07,357.9c-6.5-3.75-19.75-6.25-28.25-12s-6.25-10.75-12.5-14.75a6.37,6.37,0,0,0-7-.4c-.87,3.9,5.9,18.73,22,29.15s21.75,8.75,26.5,7.75c3.16-.67,4.53-3.43,2.9-6.6A13.77,13.77,0,0,0,307.07,357.9Z"/><path class="cls-15" d="M182.49,310.08s4.8-5.83,5.48-1.37-.34,12.68-3.77,15.76-5.14-1.71-5.14-1.71l2.06-2.74s1.71,3.43,3.08-2.06-2.74-4.8-2.74-4.8Z"/><path class="cls-15" d="M178.82,332c-2.84,2.1-12.1,2.1-14.93,0-6-4.45-5-25.95-5-25.95h24.86S184.83,327.57,178.82,332Z"/><path class="cls-4" d="M161.61,301.85c0-2.7,2.51-2.7,2.51-5.41s-2.51-2.71-2.51-5.41,2.51-2.71,2.51-5.42-2.51-2.71-2.51-5.42,2.51-2.71,2.51-5.42"/><path class="cls-4" d="M170.2,301.85c0-2,2.51-2,2.51-4.11s-2.51-2.05-2.51-4.11,2.51-2.05,2.51-4.11-2.51-2.06-2.51-4.12,2.51-2,2.51-4.11"/><path class="cls-4" d="M179.65,301.85c0-2.7,2.5-2.7,2.5-5.41s-2.5-2.71-2.5-5.41,2.5-2.71,2.5-5.42-2.5-2.71-2.5-5.42,2.5-2.71,2.5-5.42"/><path class="cls-15" d="M183.77,306.07c0,.63-5.56,1.13-12.43,1.13s-12.43-.5-12.43-1.13,5.56-1.13,12.43-1.13S183.77,305.44,183.77,306.07Z"/><path class="cls-11" d="M206.72,151.33S207.89,164,208.38,168s1.6,15.45,2.75,19.24,7.42,10.38,8,8.86,3.7-11.83,2.46-18-1.62-11.44-.85-13,3.54-3.31,3.54-3.31a99.87,99.87,0,0,1-9.39-5.47C210.47,153.33,207.34,150,206.72,151.33Z"/><g class="cls-26"><path class="cls-2" d="M222.77,162.42l-1-1.94c-1.84-1-4.4-2.48-6.83-4.11-4.45-3-7.58-6.37-8.2-5,0,0,1.17,12.63,1.66,16.62s1.6,15.45,2.75,19.24a12.65,12.65,0,0,0,1.61,3.12c-1.21-7.54.1-21.16.1-21.16Z"/><path class="cls-7" d="M222.77,162.42l-1-1.94c-1.84-1-4.4-2.48-6.83-4.11-4.45-3-7.58-6.37-8.2-5,0,0,1.17,12.63,1.66,16.62s1.6,15.45,2.75,19.24a12.65,12.65,0,0,0,1.61,3.12c-1.21-7.54.1-21.16.1-21.16Z"/></g><path class="cls-4" d="M206.72,151.33S207.89,164,208.38,168s1.6,15.45,2.75,19.24,7.42,10.38,8,8.86,3.7-11.83,2.46-18-1.62-11.44-.85-13,3.54-3.31,3.54-3.31a99.87,99.87,0,0,1-9.39-5.47C210.47,153.33,207.34,150,206.72,151.33Z"/><path class="cls-11" d="M206.26,153.16s7.2,6,12.72,8.2,14,2.06,15.21-.81-2.1-25.6-4.95-31.58-5.89-6.08-10.92-6.54-15.09,3.64-16.86,8.5.25,11.74,1.71,15.82A29.6,29.6,0,0,0,206.26,153.16Z"/><g class="cls-27"><path class="cls-2" d="M219.19,152.89c-2.55-7.56-3.19-19.46-3.19-22.63,0-2.45,6.38-5.14,9.29-6.24-1.91-1.18-4.13-1.33-7-1.59-5-.45-15.09,3.64-16.86,8.5s.25,11.74,1.71,15.82a29.6,29.6,0,0,0,3.09,6.41s7.2,6,12.72,8.2a22.84,22.84,0,0,0,12,1.15C227,161,220.89,157.94,219.19,152.89Z"/><path class="cls-7" d="M219.19,152.89c-2.55-7.56-3.19-19.46-3.19-22.63,0-2.45,6.38-5.14,9.29-6.24-1.91-1.18-4.13-1.33-7-1.59-5-.45-15.09,3.64-16.86,8.5s.25,11.74,1.71,15.82a29.6,29.6,0,0,0,3.09,6.41s7.2,6,12.72,8.2a22.84,22.84,0,0,0,12,1.15C227,161,220.89,157.94,219.19,152.89Z"/></g><path class="cls-4" d="M206.26,153.16s7.2,6,12.72,8.2,14,2.06,15.21-.81-2.1-25.6-4.95-31.58-5.89-6.08-10.92-6.54-15.09,3.64-16.86,8.5.25,11.74,1.71,15.82A29.6,29.6,0,0,0,206.26,153.16Z"/><path class="cls-4" d="M229.78,138.33c.12,2.88-1.69,5.29-4,5.38s-4.33-2.16-4.44-5,1.69-5.29,4-5.39S229.67,135.42,229.78,138.33Z"/><path class="cls-4" d="M235.44,137.21c.12,2.88-.81,5.25-2.07,5.3s-2.38-2.24-2.49-5.12.82-5.26,2.08-5.31S235.33,134.33,235.44,137.21Z"/><path class="cls-15" d="M230.08,137.27s8.26,1.57,7.46,3.56-6.38,4.14-6.38,4.14"/><path class="cls-4" d="M229.57,136.33s.12-1,1.39-.37"/><line class="cls-4" x1="221.08" y1="139.11" x2="206.06" y2="145.02"/><path class="cls-28" d="M221.28,134.25A3.83,3.83,0,0,1,225,132"/><line class="cls-28" x1="231.28" y1="132.06" x2="228.97" y2="132.93"/><path class="cls-4" d="M224.14,148.83s3-.78,4.7,1"/><path class="cls-5" d="M226.07,138.85c.14,1,0,1.86-.41,1.91s-.77-.72-.91-1.73.05-1.85.42-1.9S225.94,137.85,226.07,138.85Z"/><path class="cls-6" d="M207.46,145.06s-1,2,1.82,2.1,4.74-1.27,3.37-3-3.4-3.35-1.31-5.61,6.15-4.16,3.87-6.68-10.67-.23-8.57-2.27,11.8-4.17,16.16-3.9,12.5-3.11,14.29-7.53-.71-12.59-6.57-12.15-10.23,5.63-12.83,6-7.93-2.52-12.4,0-4.62,9.76-5,10.65-6.44,2.21-7.51,8.34A16.36,16.36,0,0,0,197,144.82c2.51,2.73,3.64,3.77,3.64,3.77Z"/><path class="cls-29" d="M194.74,134a4.76,4.76,0,0,0,.64,2.66"/><path class="cls-29" d="M220.23,118.15s-2.18-4.77,3.38-4.77,6.36,7,.6,9.54-18.29,3.18-25.05,6.17a8.82,8.82,0,0,0-3.44,2.43"/><path class="cls-29" d="M210.16,135.09c-2,.72-4.59,1.72-7.22,2.94-5.57,2.59-4.38,5.17-4.38,5.17"/><path class="cls-29" d="M213.87,133.86s-.49.14-1.32.41"/><path class="cls-11" d="M208.41,147.2s-3.23-4.66-6.63-2.79-.76,8.52,1.29,10.83,6-2,6.41-3.08"/><g class="cls-30"><path class="cls-2" d="M208.41,147.2s-3.23-4.66-6.63-2.79-.76,8.52,1.29,10.83,6-2,6.41-3.08"/><path class="cls-7" d="M208.41,147.2s-3.23-4.66-6.63-2.79-.76,8.52,1.29,10.83,6-2,6.41-3.08"/></g><path class="cls-4" d="M208.41,147.2s-3.23-4.66-6.63-2.79-.76,8.52,1.29,10.83,6-2,6.41-3.08"/><rect class="cls-15" x="90.82" y="142.95" width="81.92" height="62.64" rx="5.12"/><polyline class="cls-15" points="171.18 188.01 219.18 200.51 171.18 177.01"/><rect class="cls-31" x="97.44" y="148.97" width="19.27" height="50.6"/><rect class="cls-31" x="166.08" y="148.97" width="2.41" height="50.6"/><rect class="cls-6" x="166.08" y="172.1" width="2.41" height="4.32"/><line class="cls-4" x1="122.74" y1="150.17" x2="160.69" y2="150.17"/><line class="cls-4" x1="122.74" y1="155.59" x2="160.69" y2="155.59"/><line class="cls-4" x1="122.74" y1="161.02" x2="160.69" y2="161.02"/><line class="cls-4" x1="122.74" y1="166.44" x2="160.69" y2="166.44"/><line class="cls-4" x1="122.74" y1="179.69" x2="160.69" y2="179.69"/><line class="cls-4" x1="122.74" y1="184.51" x2="160.69" y2="184.51"/><line class="cls-4" x1="122.74" y1="189.33" x2="160.69" y2="189.33"/><line class="cls-4" x1="122.74" y1="199.33" x2="160.69" y2="199.33"/><line class="cls-4" x1="97.44" y1="199.56" x2="116.72" y2="148.97"/></g><g id="freepik--Plants--inject-7"><ellipse class="cls-2" cx="387.87" cy="332.09" rx="16.73" ry="7.5"/><ellipse class="cls-7" cx="387.87" cy="332.09" rx="16.73" ry="7.5"/><path class="cls-5" d="M368.3,221.11c1.79.78,6.17.68,6.17.68s-.94-2.87-1-3c-1-2-4-5.33-6.47-5a3,3,0,0,0-2.42,3.49c0,.07,0,.14.05.21C365,219.17,366.77,220.44,368.3,221.11Z"/><path class="cls-5" d="M425.66,206.2c-2.48-.26-5.43,3.13-6.34,5.17-.08.18-1,3.07-.94,3.07h.05c-.47.53-1,1.11-1.49,1.75-1,1.19-2.06,2.54-3.14,4.1a50.52,50.52,0,0,0-3.25,5.18,38.87,38.87,0,0,0-2.78,6.26.11.11,0,0,0,0,.08v-2.94c-.29-2.2-2.14-6.31-4.6-6.76a3,3,0,0,0-3.38,2.57,1.49,1.49,0,0,0,0,.21c-.14,1.75,1.13,3.51,2.37,4.62,1.4,1.25,5.28,2.46,5.59,2.55a54.85,54.85,0,0,0-1.64,6.78c-.24,1.34-.43,2.69-.62,4v-1.28c-.29-2.21-2.14-6.31-4.59-6.76a3,3,0,0,0-3.39,2.56,1.49,1.49,0,0,0,0,.21c-.14,1.76,1.13,3.51,2.37,4.62s4.55,2.23,5.43,2.51c-.06.52-.13,1-.2,1.56-.3,2.5-.58,5-.94,7.45-.13.86-.28,1.7-.43,2.54v-1.1c-.29-2.21-2.14-6.31-4.6-6.77a3,3,0,0,0-3.38,2.57,1.49,1.49,0,0,0,0,.21c-.14,1.76,1.13,3.51,2.37,4.62s4.23,2.12,5.27,2.45c-.18.86-.37,1.72-.58,2.55-.16.56-.28,1.11-.47,1.66s-.35,1.1-.53,1.64c-.37,1-.75,2.1-1.14,3.09-.27.7-.54,1.36-.8,2,.13-.86.36-2.54.36-2.68a11.41,11.41,0,0,0-1.53-5.58c0-.21,0-.43,0-.65a3,3,0,0,0-3.4-2.53l-.21,0c-2.41.64-3.94,4.87-4.06,7.09,0,.14.08,1.57.15,2.47l-.36-1.57c-.26-1.07-.54-2.13-.84-3.26-.17-.55-.33-1.1-.5-1.65s-.39-1.12-.58-1.69c-.48-1.3-1-2.6-1.61-3.9.94-.22,4.24-1.06,5.57-2.08s2.72-2.67,2.7-4.43a3,3,0,0,0-2.87-3h-.31c-2.49.27-4.64,4.22-5.09,6.4,0,.14-.17,1.74-.24,2.62-.35-.78-.7-1.55-1.08-2.33-1.11-2.23-2.3-4.45-3.48-6.68-.37-.68-.72-1.36-1.07-2.05.33-.07,4.28-1,5.76-2.13,1.32-1,2.72-2.67,2.71-4.43a3,3,0,0,0-3-3h-.2c-2.48.27-4.63,4.22-5.08,6.4,0,.16-.24,2.47-.27,3.06-.78-1.51-1.54-3-2.24-4.53a51.9,51.9,0,0,1-2.43-6.28c.15,0,4.28-1,5.8-2.14,1.32-1,2.72-2.67,2.71-4.43a3,3,0,0,0-3-3H382c-2.48.27-4.63,4.22-5.08,6.4,0,.18-.26,2.66-.27,3.11a1.43,1.43,0,0,0-.13-.38,37.4,37.4,0,0,1-1.26-6.64c-.14-1.23-.2-2.43-.24-3.59.79-.09,4.37-.57,5.86-1.47s3-2.35,3.18-4.11a3,3,0,0,0-2.63-3.33l-.21,0c-2.5,0-5.07,3.69-5.76,5.8,0,.12-.28,1.33-.45,2.22v-1.57c0-1.88.12-3.61.24-5.14.08-.87.16-1.65.25-2.39.72-.49,3.6-2.53,4.49-4s1.58-3.47.93-5.1a3,3,0,0,0-3.75-1.8l-.31.13c-2.22,1.14-2.8,5.6-2.44,7.8,0,.19.87,3.1.91,3.08h0c-.09.7-.19,1.46-.28,2.28-.15,1.53-.31,3.26-.35,5.16a54.14,54.14,0,0,0,.14,6.11,38.54,38.54,0,0,0,1.14,6.75.11.11,0,0,0,0,.08c-.39-.61-1.55-2.3-1.65-2.42-1.46-1.69-5.26-4.08-7.56-3.11a3,3,0,0,0-1.41,4l.1.18c.85,1.55,2.88,2.31,4.53,2.55,1.85.27,5.76-.86,6.07-1a53.84,53.84,0,0,0,2.37,6.55c.54,1.25,1.12,2.49,1.72,3.72a7.89,7.89,0,0,0-.73-1c-1.46-1.68-5.27-4.08-7.56-3.11a3,3,0,0,0-1.42,4c0,.07.07.14.11.2.85,1.54,2.88,2.31,4.52,2.55s5-.66,5.91-.91c.23.47.46.94.7,1.41,1.13,2.26,2.27,4.5,3.32,6.73.37.79.7,1.58,1,2.37-.31-.47-.58-.85-.63-.91-1.46-1.68-5.27-4.08-7.56-3.11a3,3,0,0,0-1.42,4c0,.07.07.14.11.2.85,1.54,2.88,2.3,4.52,2.54s4.7-.57,5.75-.86c.32.82.65,1.64.92,2.45.18.55.39,1.07.53,1.64s.31,1.11.47,1.66c.25,1.07.52,2.17.75,3.21.16.73.3,1.42.44,2.12-.36-.79-1.1-2.31-1.17-2.43-1.19-1.89-4.59-4.84-7-4.22a2.94,2.94,0,0,0-2,3.62,2.55,2.55,0,0,0,.11.33c.6,1.65,2.49,2.71,4.08,3.2,1.76.53,5.64,0,6.12,0,.23,1.16.45,2.29.63,3.36.66,3.7,1.06,6.81,1.31,9a8.15,8.15,0,0,0,.12,1.06h-7.51l2.41,47.1a6.74,6.74,0,0,0,6.73,6.39h0a6.73,6.73,0,0,0,6.72-6.39l2.42-47.1h-7l.16-.32c1-2,2.29-4.88,3.73-8.39.45-1.11.92-2.31,1.38-3.54.47.1,4.31.88,6.1.47,1.63-.36,3.59-1.28,4.32-2.88a3,3,0,0,0-1.42-4l-.21-.09c-2.37-.79-6,1.9-7.3,3.69-.08.1-.79,1.35-1.23,2.14.18-.51.37-1,.56-1.52.38-1,.72-2.06,1.1-3.18.16-.54.33-1.09.49-1.65s.3-1.15.45-1.73c.32-1.35.58-2.73.81-4.13.9.33,4.12,1.45,5.79,1.33s3.74-.73,4.7-2.2a3,3,0,0,0-.81-4.16l-.19-.12c-2.22-1.15-6.19,1-7.77,2.53-.1.1-1.11,1.36-1.65,2.06.14-.85.27-1.69.38-2.54.31-2.48.54-5,.78-7.5l.24-2.29c.32.12,4.12,1.53,6,1.4,1.66-.12,3.74-.73,4.7-2.2a3,3,0,0,0-.81-4.16l-.19-.12c-2.22-1.15-6.2,1-7.77,2.53-.12.12-1.57,1.93-1.91,2.41.17-1.69.37-3.37.63-5a53.38,53.38,0,0,1,1.43-6.59c.15.06,4.11,1.55,6,1.41,1.66-.11,3.74-.72,4.7-2.2a3,3,0,0,0-.81-4.16l-.19-.12c-2.22-1.14-6.19,1-7.77,2.54-.12.12-1.68,2.07-1.93,2.44a1.34,1.34,0,0,1,.1-.38,38.27,38.27,0,0,1,2.61-6.24c.56-1.11,1.17-2.14,1.78-3.12.71.35,4,1.93,5.7,2s3.79-.31,4.91-1.67a3,3,0,0,0-.33-4.23l-.18-.14c-2.08-1.38-6.26.28-8,1.67l-1.6,1.6.84-1.33c1.05-1.57,2.1-2.94,3-4.15.54-.69,1.05-1.29,1.52-1.86.88,0,4.41-.12,5.95-.84s3.23-2,3.6-3.75a3,3,0,0,0-2.49-3.8Zm-27.47,66.64c-1.5,3.45-2.88,6.27-3.87,8.22l-.54,1.07h-.17c-.05-.38-.1-.8-.17-1.27-.3-2.2-.77-5.33-1.51-9-.24-1.18-.51-2.44-.8-3.72a33.22,33.22,0,0,0,3.42-1.6,20.86,20.86,0,0,0,5,3.2C399.07,270.79,398.63,271.85,398.19,272.84Z"/><path class="cls-5" d="M412.59,222.07s.79-2.91.82-3.1c.31-2.21-.4-6.65-2.64-7.74a3,3,0,0,0-3.93,1.6,1.34,1.34,0,0,0-.07.18c-.6,1.66.16,3.69,1.07,5.09C408.88,219.74,412.58,222.07,412.59,222.07Z"/></g></svg>