<svg id="Layer_1" data-name="Layer 1" xmlns="http://www.w3.org/2000/svg" viewBox="0 0 500 392.61"><defs><style>.cls-1,.cls-6{fill:currentColor;}.cls-2,.cls-3,.cls-5{fill:#fff;}.cls-2{opacity:0.7;isolation:isolate;}.cls-3,.cls-5,.cls-6,.cls-7,.cls-8{stroke:#263238;}.cls-3,.cls-5,.cls-6,.cls-7,.cls-8,.cls-9{stroke-linecap:round;stroke-linejoin:round;}.cls-4,.cls-7{fill:#263238;}.cls-5{stroke-width:0.7px;}.cls-8,.cls-9{fill:none;}.cls-9{stroke:#7d7d7d;}</style></defs><title>cart</title><g id="freepik--background-simple--inject-152"><path class="cls-1" d="M444.15,85.9s-28.54-56.39-91.56-64.75-107,32.37-153.38,53.26c-24.29,10.94-52,6.69-77.8,12C39,103.32,7.92,209.38,42.26,269.7c29.72,52.22,82,79.37,161.7,85.63s135.55,13.58,206.9-37.59S477.44,160.05,444.15,85.9Z"/><path class="cls-2" d="M444.15,85.9s-28.54-56.39-91.56-64.75-107,32.37-153.38,53.26c-24.29,10.94-52,6.69-77.8,12C39,103.32,7.92,209.38,42.26,269.7c29.72,52.22,82,79.37,161.7,85.63s135.55,13.58,206.9-37.59S477.44,160.05,444.15,85.9Z"/></g><g id="freepik--Device--inject-152"><rect class="cls-3" x="181.01" width="207.85" height="392.61" rx="7.67"/><path class="cls-4" d="M305.52,21.67H264.35a2.81,2.81,0,0,1-2.81-2.81h0a2.81,2.81,0,0,1,2.81-2.81h41.17a2.81,2.81,0,0,1,2.81,2.81h0a2.81,2.81,0,0,1-2.81,2.81Z"/><path class="cls-5" d="M296.16,366.8A11.23,11.23,0,1,0,284.93,378a11.23,11.23,0,0,0,11.23-11.23Z"/><rect class="cls-4" x="279.24" y="361.11" width="11.38" height="11.38"/><rect class="cls-6" x="190.25" y="43.11" width="189.37" height="306.39"/><rect class="cls-7" x="190.25" y="43.11" width="189.37" height="19.66"/><line class="cls-8" x1="275.96" y1="67.6" x2="297.2" y2="67.6"/><line class="cls-8" x1="262.52" y1="71.5" x2="313.24" y2="71.5"/><path class="cls-4" d="M220.89,101.48a1.12,1.12,0,0,1-1.12-1.12,1.08,1.08,0,0,1,.12-.5l16.43-33.15a1.11,1.11,0,0,1,2,0l15,32.57a1.12,1.12,0,0,1-.29,1.56h0a1.11,1.11,0,0,1-1.54-.28h0a1,1,0,0,1-.16-.33l-14-30.44-15.38,31A1.13,1.13,0,0,1,220.89,101.48Z"/><path class="cls-3" d="M216.28,97.19h40.64l10.21,33.87a11,11,0,0,1-1.71,9.78h0a11,11,0,0,1-8.88,4.48H217.88a11.08,11.08,0,0,1-8.95-4.56l-.44-.61a11.07,11.07,0,0,1-1.69-9.54Z"/><path class="cls-3" d="M298.46,101.8h69.17v35.81a7.72,7.72,0,0,1-7.72,7.72H306.18a7.72,7.72,0,0,1-7.72-7.72h0v-35.8Z"/><path class="cls-8" d="M298.46,101.8l7.47,19.46a8.3,8.3,0,0,0,7.74,5.32h39.42a8.29,8.29,0,0,0,7.83-5.56l6.71-19.22"/><rect class="cls-3" x="326.7" y="123.12" width="15.27" height="6.63"/><polygon class="cls-3" points="321.8 101.51 294.42 130.04 296.15 132.64 325.84 102.08 321.8 101.51"/><rect class="cls-4" x="219.26" y="152.22" width="34.34" height="11.2" rx="5"/><rect class="cls-4" x="314.35" y="152.22" width="34.34" height="11.2" rx="5"/><path class="cls-4" d="M256.73,197.68a1.12,1.12,0,0,1-1.09-.86c0-.19-4.52-18.21-18.09-17.3-14.14.94-19.18,16.56-19.23,16.72a1.14,1.14,0,0,1-1.41.74,1.11,1.11,0,0,1-.73-1.39h0c0-.18,5.53-17.25,21.22-18.29,15.43-1,20.37,18.81,20.42,19a1.1,1.1,0,0,1-.82,1.31A.9.9,0,0,1,256.73,197.68Z"/><path class="cls-3" d="M215.76,193.39s15,4.89,41.79,0L262.73,225a8.6,8.6,0,0,1-1.5,6.41l-.54.74a8.59,8.59,0,0,1-7,3.57h-34a8.58,8.58,0,0,1-7.74-4.87h0a8.62,8.62,0,0,1-.77-4.9Z"/><path class="cls-8" d="M257.55,193.39s-.55,22.22-19.89,22.22-21.9-22.19-21.9-22.19"/><rect class="cls-8" x="232.18" y="210.97" width="10.38" height="8.93"/><path class="cls-4" d="M314.93,191.91a1.14,1.14,0,0,1-1.11-1.15h0a1.12,1.12,0,0,1,.11-.47l16.43-24.24a1.07,1.07,0,0,1,1-.62,1.13,1.13,0,0,1,1,.65l15,23.67a1.12,1.12,0,0,1-2,.93l-14-21.53L316,191.29A1.14,1.14,0,0,1,314.93,191.91Z"/><path class="cls-3" d="M310.32,187.61H351l10.22,33.88a11.06,11.06,0,0,1-1.71,9.78h0a11.09,11.09,0,0,1-8.89,4.47h-38.7a11.07,11.07,0,0,1-8.95-4.55l-.44-.61a11.06,11.06,0,0,1-1.7-9.52Z"/><polygon class="cls-4" points="306.23 202.03 303.45 211.83 358.25 211.83 355.3 202.03 306.23 202.03"/><path class="cls-4" d="M300.83,221.07A11.09,11.09,0,0,0,302,229.7h58.47a11,11,0,0,0,.75-8.2l-.49-1.6H301.16Z"/><polygon class="cls-4" points="310.32 187.62 308.52 193.96 352.87 193.96 350.95 187.62 310.32 187.62"/><rect class="cls-4" x="219.26" y="240.76" width="34.34" height="11.2" rx="5"/><rect class="cls-4" x="314.35" y="240.76" width="34.34" height="11.2" rx="5"/><path class="cls-4" d="M222.86,288.26a1.12,1.12,0,0,1-1.12-1.12V276.91A14.25,14.25,0,0,1,236,262.68h.3a14.24,14.24,0,0,1,14.21,14.23v9.7a1.12,1.12,0,0,1-2.24,0v-9.7a12,12,0,0,0-12-12H236a12,12,0,0,0-12,12v10.23a1.12,1.12,0,0,1-1.12,1.12Z"/><path class="cls-3" d="M214.27,282.86s13.2,4,44.71,0l5.55,33.85a9.18,9.18,0,0,1-1.61,6.85l-.57.8a9.19,9.19,0,0,1-7.46,3.82H218.51a9.2,9.2,0,0,1-8.28-5.21h0a9.28,9.28,0,0,1-.82-5.24Z"/><path class="cls-4" d="M222.57,322a11.83,11.83,0,0,0-11.81-11.82h-.3l-1.05,7.52a9.28,9.28,0,0,0,.82,5.24h0a9.2,9.2,0,0,0,8.28,5.21h2.31A11.73,11.73,0,0,0,222.57,322Z"/><path class="cls-4" d="M250.82,322a11.65,11.65,0,0,0,1.75,6.16h2.32a9.19,9.19,0,0,0,7.46-3.82l.57-.8a9.18,9.18,0,0,0,1.61-6.85l-1.06-6.47h-.84A11.82,11.82,0,0,0,250.82,322Z"/><line class="cls-8" x1="235.83" y1="284.84" x2="235.83" y2="328.36"/><rect class="cls-3" x="299.61" y="291.75" width="62.83" height="36.6" rx="2.57"/><path class="cls-8" d="M299.9,293.48l28.05,21a4.56,4.56,0,0,0,5.54,0l27.8-21.5"/><path class="cls-3" d="M327.28,292h6.34v26a2.83,2.83,0,0,1-2.83,2.83h-.68a2.83,2.83,0,0,1-2.83-2.83V292Z"/><rect class="cls-4" x="219.26" y="333.34" width="34.34" height="11.2" rx="5"/><rect class="cls-4" x="314.35" y="333.34" width="34.34" height="11.2" rx="5"/></g><g id="freepik--Character--inject-152"><path class="cls-3" d="M83.39,211.61s-6.72,11.76-8.68,35.28,10.92,46.19,17.92,57.39-1.68,21.27-2.8,28S89.27,351,96,359.11s8.4,22.12,8.12,26.87.56,5.88,2,5.88,26.87,1.68,31.07,0l6.72-.56s1.12-2.52-1.12-3.64-9-3.36-11.2-7.55-2.59-11.5-1.73-14.84,6.16-20.16,7.28-30.52,1.68-28.55,1.68-32.75,10.36-17.36,11.76-33-3.92-47.39-3.92-47.39Z"/><path class="cls-6" d="M142.74,387.66c-2.24-1.12-9-3.36-11.2-7.55a17,17,0,0,1-1.39-3.9c-1,.1-4.41.58-5.61,2.5a8.11,8.11,0,0,1-3.92,3.08l-6.16-.56s-.28,5.87.84,8.67c.32.78-1,1.12.09,2,7.85.29,22,.94,25.57.23l2.9-.8S145,388.78,142.74,387.66Z"/><path class="cls-6" d="M133.22,388.5c-4.48-1.4-10.64-6.15-12.32-8.11a12.07,12.07,0,0,0-3.36-2.8s-3.64-1.4-4.76,1.4l-1.12,2.8-7.74-.65a34,34,0,0,1,.19,4.84c-.28,4.76.56,5.88,2,5.88,1.24,0,21.63,1.34,29,.44C135.43,390.71,135.19,389.12,133.22,388.5Z"/><path class="cls-7" d="M129.86,365.27c.84-3.36,6.16-20.16,7.28-30.52s1.68-28.55,1.68-32.75,10.36-17.36,11.76-33-3.92-47.39-3.92-47.39l-63.27-10s-6.72,11.76-8.68,35.28,10.92,46.19,17.92,57.39-1.68,21.27-2.8,28S89.27,351,96,359.11a31.28,31.28,0,0,1,5,9.09c3,1.41,7.86,2,15.16-2.09,0,0,5.17,4.09,13.37,1.48A15.07,15.07,0,0,1,129.86,365.27Z"/><path class="cls-9" d="M130.42,256.61l-7.56,4.19s-1.12,37.8-1.12,51.24-3.64,17.39-4.74,35.87.56,29.68.56,29.68"/><path class="cls-6" d="M144.82,150s9.63,3.29,13.16,12.22,4.46,25.61,4.46,34.07,2.82,15.5-.94,20.91-11.28,4.7-14.8-.24-3.06-8-1.65-19,.94-32.19-.23-36.42-5.41-11.75-5.41-11.75S142.7,148.61,144.82,150Z"/><path class="cls-3" d="M162.88,202.87a10.69,10.69,0,0,0-1-.9,14.14,14.14,0,0,0-13.25-2.84l-4.35,5c-.67,6.27-.36,9,2.4,12.85,3.52,4.94,11,5.64,14.8.24C164.24,213.26,163.49,208.45,162.88,202.87Z"/><path class="cls-3" d="M145.76,209.67s1.64-7,5.17-8.23,10.34,2.12,12.69,6.35-2.35,10.34-2.35,10.34,4.23-.94,4.7-9.64-9.4-12-14.1-12.21S144.58,206.38,145.76,209.67Z"/><path class="cls-6" d="M150.22,167.14a102.76,102.76,0,0,1,2.35,23c-.23,8.46-4.7,14.33-4.93,18.79s1.88,12.46,1.17,13.63-12.68,8-28.43,6.35S86.08,223.06,83,217.66s3.06-43.24,3.29-47.47,4-23,11.28-25.37S122,142.7,122,142.7s18.79,5.64,19.5,5.88-3.06-1.41,2.11.94,6.11,9.63,6.35,10.81"/><path class="cls-3" d="M117.56,138s-5.64,3.53-5.64,5.88,2.59,23.73,2.59,23.73l16.92-7,13.39,7.75s-2.82-12.75-5.41-18.61a21.25,21.25,0,0,0-12.68-12C121.09,135.89,117.56,138,117.56,138Z"/><path class="cls-3" d="M117.8,139.61s1.88,10.33,3.76,15c2.35,5.87,7.05,16.68,7.05,16.68s4.7-7.52,6.11-13.86,2.81-16.69,2.81-16.69-15.74-4.46-16.44-4.93S116.86,137.3,117.8,139.61Z"/><path class="cls-7" d="M161.74,93.83s-12.69-13.63-24-12.45-24,17.85-29.84,28,2.35,29.6,14.1,33.36,17.38,1.41,17.38,1.41,8.46,6.35,16.45,1.65,8.23-11.52,7.52-17.39,6.11-6.81,8.46-14.1S161.74,93.83,161.74,93.83Z"/><path class="cls-3" d="M154.22,107s-.94,3.05,2.35,9.63,3.76,10.34,3.29,14.57-3.53,8.42-6.86,11.51-8,5.41-12.45,4.7-8.22-7.28-8.22-8.22S127.2,114.51,154.22,107Z"/><path class="cls-8" d="M155.63,124.38,154,126.49s-1.17,6.58-1.88,6.58a23.72,23.72,0,0,1-3.52-.94"/><path class="cls-8" d="M146.23,137.06s-4.23-.23-3.76-3.52"/><path class="cls-4" d="M148,123.85c-.56,1.24-1.54,2-2.19,1.72s-.73-1.54-.17-2.78,1.53-2,2.19-1.72S148.55,122.61,148,123.85Z"/><path class="cls-4" d="M158.1,127.14c-.56,1.24-1.54,2-2.19,1.72s-.73-1.54-.17-2.78,1.54-2,2.19-1.72S158.66,125.89,158.1,127.14Z"/><path class="cls-8" d="M144.82,118s3.52-2.35,6.81.24"/><path class="cls-8" d="M156.57,122.26a2.11,2.11,0,0,1,2.82.71"/><path class="cls-3" d="M106.2,144s-13.31.35-20.83,2.93-9.63,15.75-9.63,22.32-2.12,46.06-.74,48.88,50.29-19,50.29-19,.94.94,3.52.94a9.2,9.2,0,0,0,4.47-1.17l-.47,3s-4,1.65-2.35,2.82,7.75-1.17,8.45-1.64,7.05-2.35,8.23-4.23-.94-7-.94-7a54,54,0,0,1,5.4,3.29c1.88,1.41,3.53,2.59,4.47,0s-5.64-5.17-8-6.58a11.65,11.65,0,0,0-7.76-2.11c-3.52.23-19.5,5.87-19.5,5.87s-.9.21-7,.71-20,.94-20,.94l6.11-25.85"/><path class="cls-4" d="M116.82,192.46s-1.3,6,2.28,9.13l3.1-1s-2.87-4.85-1.35-8.33C121.06,191.8,118,191.61,116.82,192.46Z"/><ellipse class="cls-3" cx="118.29" cy="195.8" rx="2.61" ry="2.53"/><path class="cls-8" d="M137.3,194.4s3.76,7,1.64,8.69"/><path class="cls-8" d="M141.53,191.81s4.23,4.94,2.11,8.69"/><path class="cls-6" d="M106.2,144c-4.17.23-16.15,1.32-20.83,2.93-7.52,2.59-9.63,15.75-9.63,22.32,0,5.57-1.52,34.7-1.13,45.23,4.43-15.12,19.22-20.55,19.22-20.55l7.23-28.45"/><path class="cls-3" d="M93.83,193.93s-8,6.81-10.57,14.8-1.41,8-1.41,8a5,5,0,0,1-3.06,3.52c-2.58.94-7.52-1.64-8-4.93s.94-6.11,6.82-14.1S91,191.81,93.83,193.93Z"/><polygon class="cls-7" points="164.32 190.87 151.87 209.43 164.32 210.37 178.42 191.81 164.32 190.87"/><path class="cls-3" d="M155.39,209.43s-3.76,1.41-.7,3.76,8,1.41,9.63-1.64S155.39,209.43,155.39,209.43Z"/><path class="cls-3" d="M165.26,209.43s-8.46-2.58-9.87,0S162.91,213,165,213,166.44,209.9,165.26,209.43Z"/><path class="cls-3" d="M168.55,207.32s-8.46-2.59-9.87,0,7.52,3.52,9.64,3.52S169.73,207.79,168.55,207.32Z"/><path class="cls-3" d="M170.9,203.61s-8.46-2.59-9.87,0,7.52,3.52,9.63,3.52S172.07,204,170.9,203.61Z"/></g></svg>