<svg id="Layer_1" data-name="Layer 1" xmlns="http://www.w3.org/2000/svg" viewBox="0 0 500 350.86"><defs><style>.cls-1,.cls-8{fill:currentColor;}.cls-11,.cls-2,.cls-3,.cls-4{fill:#fff;}.cls-2{opacity:0.8;}.cls-2,.cls-3{isolation:isolate;}.cls-3{opacity:0.4;}.cls-10,.cls-11,.cls-4,.cls-5,.cls-7,.cls-8,.cls-9{stroke:#263238;stroke-linecap:round;stroke-linejoin:round;}.cls-5,.cls-9{fill:none;}.cls-10,.cls-11,.cls-5{stroke-width:0.75px;}.cls-10,.cls-6,.cls-7{fill:#263238;}</style></defs><title>search</title><g id="freepik--background-simple--inject-41"><path class="cls-1" d="M92.07,285s43.09,54.57,116.72,56.79,139.48-43.68,193.8-79.46,72.15-95.62,45-145S371.24,84.83,312.12,50.12,242.56-2.78,174,.34,48.75,76.67,51.25,158.71,92.07,285,92.07,285Z"/><path class="cls-2" d="M92.07,285s43.09,54.57,116.72,56.79,139.48-43.68,193.8-79.46,72.15-95.62,45-145S371.24,84.83,312.12,50.12,242.56-2.78,174,.34,48.75,76.67,51.25,158.71,92.07,285,92.07,285Z"/></g><g id="freepik--Character--inject-41"><path class="cls-1" d="M339.74,343.86c0,3.88-43.13,7-96.34,7s-96.33-3.14-96.33-7,43.13-7,96.33-7S339.74,340,339.74,343.86Z"/><path class="cls-3" d="M339.74,343.86c0,3.88-43.13,7-96.34,7s-96.33-3.14-96.33-7,43.13-7,96.33-7S339.74,340,339.74,343.86Z"/><path class="cls-4" d="M259.66,53.54s3.38,4.87,3.59,9.1.21,7.83.85,9.31,2.75,2.54,2.54,3.81-1.91,2.54-1.91,2.54-1.05,5.92-3,8.68-4.44,1.69-6.56,1.48a17.09,17.09,0,0,1-3.81-.85A15.5,15.5,0,0,0,248,95.44a22.51,22.51,0,0,0,.21,7L233.38,98s7-5.71,6.13-12.49a28.41,28.41,0,0,0-4.23-11.63s-7.83-8.68-4.86-13.76,5.92-9.52,9.31-11.21S259.66,53.54,259.66,53.54Z"/><path class="cls-5" d="M256.69,76.42s3,3,4.87,3.38"/><line class="cls-5" x1="257.96" y1="75.36" x2="255.42" y2="77.47"/><ellipse class="cls-6" cx="261.24" cy="69.96" rx="0.95" ry="2.43"/><path class="cls-5" d="M257.33,64.78s1.27-3.81,4-2.75"/><path class="cls-7" d="M227.7,55.47s-1-6.35-9.73-6.35-8.89,12.69-6.77,18,9.94,7.41,13.54,4.87,4-7,4-9.1A59.93,59.93,0,0,0,227.7,55.47Z"/><path class="cls-7" d="M242.09,71.54s9.31-1.06,10.79-4.87-1.48-6.35-1.9-7.4,9.31-.64,11-8.89-3.38-9.52-4.86-8.25-1.48,6.56-1.48,6.56-4.45-6.14-8.47-6.78-4.65.85-3.6,2.33a30.47,30.47,0,0,0,3.81,3.81S235.75,43.19,230,49.54s-8.46,13.54-3.38,20.74A31.86,31.86,0,0,0,238.5,80.44S238.92,74.3,242.09,71.54Z"/><path class="cls-4" d="M243.36,73s-1.69-7.19-4.44-3.6-.42,7.62,1.27,9.31,4.87.21,4.87.21"/><path class="cls-4" d="M334.35,102s5.5,3.6,4.23,5.08a26.2,26.2,0,0,1-4.86,3.59s-4.66-2.32-6.77-3.59.42-3.39,2.53-4.66S333.08,100.54,334.35,102Z"/><path class="cls-4" d="M247.17,101.17l18,5.5c2.75.85,9.31.64,9.31.64a115.1,115.1,0,0,0,17.77-3c9.1-2.33,27.51-3.18,27.51-3.18s8.89-2.33,13.75-1.69l13.12,1.69a8.67,8.67,0,0,1-3.8,1.7c-2.33.42-8.26-.64-9.53-.22a8.37,8.37,0,0,0-2.75,2.33s4.23,3.81,4.23,4.87-.42,3-1.69,2.75-1.27-1.48-3-2.33-3.6-1.27-5.93-2.54a16.68,16.68,0,0,1-3.59-2.54c-.35-.34-11.31,5.33-12.59,5.86a119.55,119.55,0,0,1-14.47,5.13c-9.43,2.65-19.72,4.29-29.44,2.34-6.35-1.27-16.93-4.86-16.93-4.86s-6.56-3-6.13-8.47S247.17,101.17,247.17,101.17Z"/><path class="cls-4" d="M251.4,106.25s-5.5-9.31-10.79-11.85S230,98.84,227.28,105s-2.28,15.66-1.69,24.56,4.87,19,4.87,19-9.1,11-11.22,21.37.85,23.91,2.12,33.22,1.9,24.76,1.9,24.76-5.71,6.35-6.56,14.18-3.79,41.64-3.79,45.66-.84,9.95,0,11,.85,1,1.7,1,20.73-1.9,22.43-3.38,2.53-2.54.63-3.39-18-7-18.2-8.67,15-39.53,17.54-46.3,5.29-36.4,6.35-40.84,3.18-12.49,3.18-12.49a199.05,199.05,0,0,0,22.29-2.94c14.39-2.54,27.88-9.44,27.88-9.44s-7.32,13.77-4.65,22.87,3.77,22,4.34,30.85-.61,8,.57,8.82,9.8-3.21,12.19-3.55,11.06-1.34,13.84-3.12-9.35-3.55-14.44-5.49-5.36-3-5.36-3-.19-6.85,5.54-34.7c2.85-13.89,4.11-25.28.42-26.4s-34-.5-41.39,1.41a26.1,26.1,0,0,0-11.71,6.57s-3.39-14.6-3-19.89,1.27-12.28,1.27-12.28,6.34-2.32,6.13-7.83-4.44-9.73-6.35-13.11A30.08,30.08,0,0,1,251.4,106.25Z"/><path class="cls-8" d="M237.67,293.05c-1.63-.72-13.64-5.32-17.2-7.69a2.87,2.87,0,0,0-.79,2,25.08,25.08,0,0,0,1.27,3.39L212.68,293c-.17,2.72-.28,5.15.23,5.8.85,1,.85,1,1.7,1s20.73-1.9,22.43-3.38S239.57,293.9,237.67,293.05Z"/><path class="cls-7" d="M305.63,201.22c.77-4.39,1.77-9.72,3.11-16.21,2.85-13.89,4.11-25.28.42-26.4s-34-.5-41.39,1.41c-4.28,1.1-9.87,2.65-10.15,3-.48-2.11-4.56-10-4.56-15.36-8.92.57-17.06,1.13-17.53,1.31l-7.89,3.35c-2.86,4.11-7,11-8.4,17.6-2.12,10.37.85,23.91,2.12,33.22s1.9,24.76,1.9,24.76-5.71,6.35-6.56,14.18c-.54,5-4.31,25.16-4.07,34.45a30.79,30.79,0,0,0,9.47-.72c3.43-9.83,13.18-33.14,14.91-37.75,2.54-6.77,5.29-36.4,6.35-40.84s3.18-12.49,3.18-12.49a199.05,199.05,0,0,0,22.29-2.94c14.39-2.54,27.88-9.44,27.88-9.44s-7.32,13.77-4.65,22.87c.67,2.3,1.25,4.85,1.74,7.51A26.33,26.33,0,0,0,305.63,201.22Z"/><path class="cls-8" d="M253.1,146.67c.42-5.29,1.27-12.28,1.27-12.28s6.34-2.32,6.13-7.83-4.44-9.73-6.35-13.11a30.33,30.33,0,0,1-2.75-7.2s-5.5-9.31-10.79-11.85S230,98.84,227.28,105s-2.28,15.66-1.69,24.56,4.87,19,4.87,19-7.22,8.75-10.29,18a39.34,39.34,0,0,0,17.9,3c10.07-.74,16.92-4.22,19.55-6.48C256.64,158.32,252.82,150.18,253.1,146.67Z"/><path class="cls-9" d="M245.48,119S240.12,123,230.12,125"/><path class="cls-9" d="M246.12,120.54s-5,7-10.5,9"/><path class="cls-9" d="M230,162.25c-1.08.63-2.19,1.23-3.34,1.79"/><path class="cls-9" d="M251.12,141.54a68.06,68.06,0,0,1-17,18"/><path class="cls-7" d="M265.37,66v4.73a1,1,0,0,0,.86,1l29.49,3.86a1,1,0,0,0,1.11-.87.53.53,0,0,0,0-.13l.05-9.44a1,1,0,0,0-1-1l-29.55.79a1,1,0,0,0-1,1Z"/><path class="cls-4" d="M274.47,76.84s-5.72-1.48-6.14-3.18a13.73,13.73,0,0,1-.42-3s2.75.64,3.6.21.21-12.27,1.27-12.9,4.44-2.12,5.71.84.42,2.12.42,2.12a8.41,8.41,0,0,1,3.39,0,8.66,8.66,0,0,1,3,1.9s2.75-.42,3.39,1.48-2.33,10-4.24,13.55-2.54,5.07-2.54,5.07-2.54,31.75-4,37.88-3.91,9.73-5,9.73-19.82-8.67-27.44-11.63-12.7-2.2-14-9.82,4-9.44,8.47-9.44,27.72,14,27.72,14,7.4-22,7.4-27.93A47.19,47.19,0,0,0,274.47,76.84Z"/><path class="cls-8" d="M323,228.24c2.79-1.77-9.35-3.55-14.44-5.49a22.68,22.68,0,0,1-4.19-2,2.69,2.69,0,0,0-.71,2,17.59,17.59,0,0,0,.8,3.73s-4.58,1.25-7.93,2.27c.2,6-.6,5.45.44,6.15s9.8-3.21,12.19-3.55S320.22,230,323,228.24Z"/><line class="cls-5" x1="246.54" y1="184.75" x2="251.62" y2="173.54"/><circle class="cls-10" cx="289.93" cy="334.92" r="7.78"/><path class="cls-11" d="M285,328.32s1.65,7.07,2.59,8.49,4,2.12,4.72-.95-2.59-8-2.59-8Z"/><circle class="cls-10" cx="189.23" cy="334.92" r="7.78"/><path class="cls-11" d="M194.18,328.32s-1.65,7.07-2.59,8.49-4,2.12-4.72-.95,2.6-8,2.6-8Z"/><path class="cls-4" d="M309.79,262.29a1.58,1.58,0,0,0-.08-1.42l-1.6-27.22a1.68,1.68,0,0,0-1.35-1.54L182.3,207.92l-2-10.56a6.66,6.66,0,0,0-6.47-5.41l-23-.2h0a1.68,1.68,0,0,0-1.67,1.68,1.66,1.66,0,0,0,1.67,1.66l23,.2A3.31,3.31,0,0,1,177,198l11.73,62.28v.12a1.5,1.5,0,0,0,.17.75l7.49,39.73a1.65,1.65,0,0,0,0,1.16s1.63,4.57-.5,11.16A32.14,32.14,0,0,1,188.58,325a1.61,1.61,0,0,0-.46.95h-8.76a1.67,1.67,0,1,0,0,3.34H293.23a1.67,1.67,0,0,0,0-3.34H241.91c-1-3.07-2.17-9.9,1.73-13.35a29.93,29.93,0,0,0,9.54-16l56.61-8.06a1.65,1.65,0,0,0,1.43-1.75Zm-53.71,30.43-.4-3.35,8.37-.85.26,3ZM244,294.44l-.48-3.84,8.84-.89.41,3.48Zm-40.93-79.08,2.75,17.18-9.76-1-3.39-18.19Zm15.3,3L220.15,234l-10.88-1.1-2.71-16.82Zm13,2.53,1.82,14.41-9.63-1L221.81,219Zm13.22,2.57,1.53,13.08-9.53-1-1.77-14ZM306.32,260l-14.13-.15c-.39-5.51-.76-10.81-1.07-15.35L305.49,246Zm-17.49-.19-10.38-.11-1.13-16.59,10.43,1c.31,4.67.69,10.13,1.07,15.67ZM214,262.32l9.39.1,3,26.55-8,.81Zm1.09,27.8-8,.8-5.35-28.73,8.84.1Zm33.7-30.77-9.24-.1L237,239l9.5,1Zm1.13-19,10,1,1.62,18.19-9.37-.1Zm-13.74,18.9-9.8-.11-2.45-21.41,9.66,1ZM223,259.08l-9.55-.11-3.66-22.69,10.72,1.08Zm3.75,3.38,9.84.11,3.15,25.05-10,1Zm13.21.14,9.21.1L252,286.39l-8.88.89Zm12.58.14,9.27.1,1.93,22.35-8.47.86Zm12.63.13,10.12.11,1.42,20.9-9.64,1Zm-.27-3.33-1.55-17.86,10.59,1.07,1.15,16.9Zm12.18-19.83-.68-10.09,10.49,2c.08,1.39.31,4.7.61,9.1Zm-3.37-.34-10.65-1.08-1-11.45L273,229Zm-14-1.42-10.15-1L248,224.1l10.63,2.06Zm-53.31-2,3.71,23-8.93-.1L196.73,235Zm-8.63,22.87-5.87-.06L187.24,234l6,.61Zm.63,3.35,5.42,29.11-5.69.58-5.6-29.75Zm.35,33,5.69-.57,1,5.37-5.64.8Zm10,4.33-1-5.24,7.88-.8.8,4.94Zm11-1.57-.77-4.8,7.85-.8.51,4.52Zm10.9-1.55-.5-4.39,10-1,.5,4Zm36.74-8.15,9.58-1,.17,2.5-9.5,1.35Zm12.91-1.31,10.36-1c0,.7.09,1.34.13,1.95l-10.33,1.47Zm-.23-3.34-1.39-20.52,10.39.11c.49,7,1,14,1.35,19.37Zm12.35-20.37,14.09.15,1,17.45-13.79,1.39c-.39-5.87-.85-12.5-1.31-19Zm12.86-20.67-14.4-1.45c-.28-4-.49-7.08-.6-8.78l14.57,2.83ZM189.14,212.66l3.46,18.52-6-.6L183,211.45Zm52.28,97.43c-4.82,4.26-4.11,11.64-3,15.85h-46.2a34.53,34.53,0,0,0,6.84-11.73,24.13,24.13,0,0,0,1.13-10.16l6.94-1h.55a1.42,1.42,0,0,0,.45-.16L249.61,297A27.1,27.1,0,0,1,241.42,310.09ZM294.1,287.3c0-.58-.08-1.19-.12-1.8l13.74-1.39.08,1.25Z"/><path class="cls-7" d="M170.13,196.29H145.84a3.35,3.35,0,1,1-.37-6.69h24.66a3.35,3.35,0,0,1,0,6.69Z"/><line class="cls-9" x1="207.76" y1="67.1" x2="187.73" y2="67.1"/><line class="cls-9" x1="166.7" y1="104.25" x2="160.97" y2="104.25"/><line class="cls-9" x1="219.31" y1="104.25" x2="174.32" y2="104.25"/><line class="cls-9" x1="180.01" y1="216.55" x2="117.54" y2="216.55"/><line class="cls-9" x1="156.85" y1="228.49" x2="130.17" y2="228.49"/><line class="cls-9" x1="215.61" y1="172.91" x2="192.64" y2="172.91"/><line class="cls-9" x1="292.31" y1="197.6" x2="274.06" y2="197.6"/><line class="cls-9" x1="283.19" y1="193.39" x2="258.62" y2="193.39"/></g></svg>